<svg width="34" height="34" viewBox="0 0 34 34" fill="none" xmlns="http://www.w3.org/2000/svg">
<rect width="34" height="34" rx="11" fill="#DF1900"/>
<g clip-path="url(#clip0_450_626)">
<path d="M22.9343 24.4998C18.5342 28.8998 5.09927 15.4648 9.4993 11.0648L10.7308 9.83324C11.6574 8.90661 13.2099 9.10656 13.8715 10.2377L14.4058 11.1513C14.7946 11.8162 14.7671 12.6452 14.3351 13.2828L13.9728 13.8177C13.5693 14.4131 13.6453 15.2111 14.1539 15.7197L16.2166 17.7824L18.2795 19.8451C18.7881 20.3536 19.5861 20.4296 20.1815 20.0262L20.7161 19.664C21.3537 19.232 22.1827 19.2045 22.8475 19.5933L23.7612 20.1276C24.8924 20.7891 25.0924 22.3417 24.1658 23.2683L22.9343 24.4998Z" fill="#FCEFE8" stroke="#FCEFE8" stroke-width="2" stroke-linecap="round" stroke-linejoin="round"/>
</g>
<defs>
<clipPath id="clip0_450_626">
<rect width="24" height="24" fill="white" transform="translate(5 5)"/>
</clipPath>
</defs>
</svg>
