<svg width="248" height="131" viewBox="0 0 248 131" fill="none" xmlns="http://www.w3.org/2000/svg">
<g clip-path="url(#clip0_250_1854)">
<path d="M1.30078 38.7671V117.145C1.30078 120.497 2.67044 123.713 5.10844 126.084C7.54645 128.454 10.8531 129.786 14.301 129.786H233.701C237.148 129.786 240.455 128.454 242.893 126.084C245.331 123.713 246.701 120.497 246.701 117.145V38.7671C246.701 38.7671 246.701 1.28076 123.996 1.28076C1.29212 1.28076 1.30078 38.7671 1.30078 38.7671Z" fill="#FFE8AE" stroke="#DF1900" stroke-width="2.54463" stroke-miterlimit="10"/>
<path d="M34.3033 23.5049L35.716 25.3758L38.108 25.3084L36.7126 27.1878L37.5187 29.379L35.2393 28.6711L33.3499 30.0953L33.3413 27.7693L31.3652 26.463L33.6359 25.7298L34.3033 23.5049Z" fill="#DF1900"/>
<path d="M95.9765 13.3237L97.2158 15.3042L99.5992 15.4391L98.0392 17.2005L98.6459 19.4422L96.4445 18.5489L94.4338 19.8046L94.6331 17.487L92.7871 16.0206L95.1098 15.4896L95.9765 13.3237Z" fill="#DF1900"/>
<path d="M214.166 23.5049L212.753 25.3758L210.361 25.3084L211.757 27.1878L210.951 29.379L213.23 28.6711L215.119 30.0953L215.128 27.7693L217.104 26.463L214.833 25.7298L214.166 23.5049Z" fill="#DF1900"/>
<path d="M155.179 13.3237L153.94 15.3042L151.557 15.4391L153.117 17.2005L152.51 19.4422L154.711 18.5489L156.722 19.8046L156.523 17.487L158.369 16.0206L156.046 15.4896L155.179 13.3237Z" fill="#DF1900"/>
<path d="M18.9895 73.1521C18.9895 75.3433 19.8562 76.2704 21.5895 75.9501C30.5943 74.2646 35.1184 73.5482 44.1752 72.2504C44.5579 72.1921 44.9498 72.2404 45.3056 72.3895C45.6614 72.5386 45.9666 72.7826 46.1859 73.0931C46.7866 73.8934 47.092 74.8674 47.0525 75.8574C47.0926 76.9021 46.812 77.9348 46.2465 78.824C46.0457 79.1869 45.7613 79.4998 45.4155 79.7381C45.0697 79.9765 44.6719 80.1337 44.2532 80.1977C36.1757 81.1331 28.0983 82.2372 20.0728 83.5013C17.5855 83.8806 15.6614 83.3328 14.2921 81.8916C12.9227 80.4505 12.2294 78.2425 12.2294 75.2169V58.2014C11.8971 58.3231 11.5364 58.3512 11.1884 58.2826C10.8404 58.2141 10.5194 58.0516 10.262 57.8137C9.97334 57.5255 9.7501 57.1815 9.60678 56.804C9.46345 56.4266 9.40324 56.0241 9.43003 55.6225C9.42023 54.6529 9.70024 53.7013 10.236 52.8835C10.6624 52.1133 11.3567 51.5158 12.1947 51.198C21.5115 48.1977 30.7503 45.5093 40.2231 42.981C40.5836 42.8802 40.9668 42.8865 41.3236 42.9992C41.6803 43.1118 41.9943 43.3256 42.2251 43.6131C42.8282 44.367 43.1354 45.3052 43.0918 46.2594C43.1208 47.3177 42.8446 48.3629 42.2945 49.2765C42.0893 49.6558 41.8067 49.9905 41.4639 50.26C41.1212 50.5296 40.7255 50.7283 40.3011 50.844C31.7297 52.7487 27.4656 53.8274 18.9808 56.2293L18.9895 73.1521ZM17.6808 99.8848C17.3006 99.9247 16.9163 99.868 16.5654 99.7203C16.2145 99.5726 15.909 99.3389 15.6788 99.042C15.1011 98.3227 14.8088 97.4252 14.8554 96.5137C14.8336 95.5597 15.1184 94.6228 15.6701 93.8337C15.8864 93.4911 16.1767 93.1983 16.5209 92.9757C16.8651 92.753 17.255 92.6058 17.6635 92.5442C30.5885 91.0947 43.5252 89.8474 56.4733 88.8023C56.9591 88.7692 57.4449 88.8654 57.8786 89.0808C58.3123 89.2961 58.6774 89.6223 58.9347 90.0244C59.6352 91.0356 59.99 92.2358 59.9487 93.4544C59.9487 101.528 60.018 105.565 60.07 113.681C60.1115 114.825 59.771 115.952 59.0994 116.892C58.8405 117.292 58.4829 117.622 58.059 117.853C57.6352 118.085 57.1586 118.209 56.6727 118.215C56.185 118.21 55.7062 118.088 55.2785 117.86C54.8508 117.632 54.4872 117.305 54.22 116.909C53.5442 115.994 53.1914 114.891 53.2146 113.765L53.1193 97.4407C41.2862 98.0812 29.4734 98.8959 17.6808 99.8848ZM59.8534 80.8129C59.8858 81.9796 59.5468 83.1275 58.8827 84.0997C58.6271 84.5184 58.2748 84.8735 57.8536 85.1368C57.4324 85.4002 56.9538 85.5644 56.456 85.6167C55.9857 85.6574 55.5126 85.5778 55.0839 85.3855C54.6551 85.1933 54.2855 84.8953 54.012 84.5211C53.3194 83.6437 52.9638 82.5586 53.0066 81.4534C53.0066 74.3741 52.9373 70.8261 52.8939 63.7553C48.2919 64.4295 45.9605 64.7919 41.4018 65.5841C41.0264 65.6524 40.6388 65.6167 40.2833 65.4811C39.9278 65.3455 39.6186 65.1154 39.3911 64.8171C38.7928 64.0575 38.4863 63.1185 38.5244 62.1624C38.4938 61.1214 38.7737 60.094 39.3304 59.2043C39.5344 58.8319 39.8164 58.5052 40.1583 58.2453C40.5001 57.9855 40.8942 57.7983 41.3151 57.6957C45.9345 56.7855 48.2399 56.3642 52.8679 55.6225L52.7813 41.4387C52.7633 40.2475 53.1004 39.0766 53.752 38.0676C54.002 37.6192 54.3441 37.2255 54.7571 36.9109C55.17 36.5963 55.6451 36.3676 56.1527 36.2388C56.6002 36.1327 57.0698 36.1559 57.504 36.3056C57.9381 36.4554 58.3179 36.725 58.5967 37.0816C59.2996 37.9346 59.66 39.0067 59.6107 40.0987C59.6916 53.6561 59.7725 67.2275 59.8534 80.8129Z" fill="#DF1900"/>
<path d="M100.284 81.9673C100.284 86.8722 100.284 89.3247 100.284 94.238C100.324 95.4517 99.9827 96.6483 99.305 97.6681C99.0572 98.0913 98.703 98.4463 98.2755 98.6999C97.848 98.9534 97.3612 99.0972 96.8609 99.1177C96.3767 99.107 95.9032 98.9769 95.4848 98.7395C95.0664 98.5022 94.7168 98.1654 94.4689 97.7608C93.7863 96.7639 93.4353 95.5871 93.4636 94.3897V82.2033C84.6581 82.5404 80.2641 82.768 71.4759 83.3579C71.0651 83.374 70.6579 83.2774 70.3009 83.0792C69.9438 82.881 69.6512 82.5892 69.4566 82.237C68.8622 81.339 68.5602 80.2875 68.5899 79.2199C68.5408 78.1257 68.7984 77.0392 69.3352 76.0764C69.5245 75.6967 69.8069 75.3682 70.1575 75.1199C70.5082 74.8715 70.9163 74.7108 71.3459 74.6521C87.8908 73.4217 104.375 72.6969 120.972 72.4777C121.399 72.5006 121.812 72.6347 122.167 72.866C122.522 73.0973 122.807 73.4173 122.991 73.7925C123.532 74.7947 123.814 75.9096 123.814 77.0413C123.814 78.1731 123.532 79.2879 122.991 80.2902C122.808 80.6674 122.524 80.9899 122.169 81.2241C121.813 81.4582 121.4 81.5956 120.972 81.6218C112.669 81.6471 108.561 81.7482 100.284 81.9673ZM71.9353 65.1119C71.5298 63.9834 71.443 62.7698 71.6839 61.5976C71.83 60.4915 72.348 59.4633 73.1573 58.6732C79.0767 53.5239 82.0494 50.9281 87.9948 45.7788C88.3095 45.4952 88.6961 45.2982 89.1149 45.2078C89.5337 45.1175 89.9697 45.1371 90.3782 45.2647C90.834 45.4362 91.2415 45.7105 91.567 46.0651C91.8924 46.4197 92.1266 46.8444 92.2502 47.3042C92.6554 48.4563 92.7391 49.6922 92.4929 50.886C92.3532 51.9884 91.8303 53.0113 91.0109 53.7851C85.1261 58.8923 82.1707 61.4628 76.2687 66.5784C75.9619 66.8826 75.5729 67.0963 75.1466 67.1947C74.7202 67.2932 74.274 67.2723 73.8593 67.1346C73.3979 66.9679 72.9833 66.6979 72.6491 66.3465C72.3149 65.9951 72.0703 65.5722 71.9353 65.1119ZM117.341 108.026C117.767 108.046 118.18 108.179 118.535 108.41C118.889 108.642 119.171 108.964 119.351 109.34C119.928 110.327 120.213 111.45 120.175 112.585C120.211 113.722 119.926 114.847 119.351 115.838C119.171 116.213 118.89 116.533 118.537 116.765C118.185 116.997 117.774 117.131 117.349 117.153H81.9021C80.7373 117.184 79.5846 116.917 78.5593 116.379C77.5341 115.841 76.6724 115.05 76.0607 114.085C74.6624 112.057 73.9546 109.197 73.9373 105.506L73.92 95.2325C73.8734 94.0378 74.2129 92.8589 74.8906 91.8614C75.1412 91.4397 75.4942 91.084 75.9187 90.8254C76.3432 90.5668 76.8264 90.4133 77.326 90.3782C77.8116 90.3623 78.2929 90.4706 78.7218 90.6925C79.1508 90.9144 79.5122 91.2419 79.77 91.6423C80.463 92.6092 80.8156 93.7681 80.7754 94.946C80.7754 98.7132 80.7754 100.601 80.8274 104.377C80.8274 107 81.7114 108.298 83.4794 108.27C94.7751 108.135 106.074 108.054 117.375 108.026H117.341ZM120.287 62.5162C120.162 63.0033 119.928 63.4576 119.601 63.8465C119.274 64.2355 118.864 64.5496 118.398 64.7664C118.006 64.942 117.572 65.0089 117.144 64.9598C116.716 64.9107 116.31 64.7476 115.971 64.4883C109.592 59.6339 103.101 54.8723 96.5056 50.2876C95.2281 49.3243 94.2379 48.0472 93.6369 46.5879C92.8677 44.6751 92.4994 42.6321 92.5536 40.5789V35.6825C92.5104 34.4857 92.8561 33.3062 93.5416 32.3114C93.8032 31.8932 94.1608 31.5394 94.5862 31.2778C95.0117 31.0161 95.4936 30.8535 95.9943 30.8028C96.4682 30.7599 96.9453 30.8394 97.3775 31.0333C97.8097 31.2271 98.1816 31.5285 98.4556 31.9069C99.1646 32.8438 99.5196 33.9897 99.461 35.1515C99.461 36.7949 99.461 37.6208 99.461 39.2727C99.4249 40.0177 99.5519 40.7617 99.8337 41.4554C100.048 41.9397 100.377 42.3673 100.796 42.7027C108.093 47.7593 111.742 50.4562 118.996 55.9426C119.83 56.6997 120.359 57.722 120.487 58.8249C120.753 60.0548 120.696 61.3301 120.322 62.5331L120.287 62.5162Z" fill="#DF1900"/>
<path d="M146.47 35.396C148.619 35.5384 150.692 36.224 152.485 37.3849C154.418 38.6196 156.092 40.2013 157.416 42.0454C158.879 44.0795 159.999 46.3269 160.735 48.7033C161.554 51.3082 161.958 54.0197 161.931 56.7433L161.775 92.0048C161.785 94.6848 161.361 97.3497 160.519 99.9015C159.78 102.171 158.645 104.301 157.165 106.197C155.831 107.911 154.153 109.345 152.233 110.411C150.414 111.418 148.355 111.941 146.262 111.928C144.164 111.922 142.106 111.373 140.299 110.335C138.379 109.233 136.71 107.762 135.394 106.012C133.917 104.041 132.794 101.841 132.074 99.5054C131.239 96.8749 130.83 94.134 130.861 91.3811V55.2601C130.83 52.0964 131.397 48.9541 132.534 45.9896C132.858 44.9646 133.587 44.1068 134.562 43.6046C134.986 43.4234 135.46 43.3821 135.91 43.4871C136.361 43.5921 136.764 43.8376 137.058 44.1861C137.924 45.0478 138.489 46.154 138.67 47.3465C138.891 48.6344 138.763 49.9563 138.297 51.1811C137.809 52.679 137.581 54.2455 137.621 55.8163C137.621 67.5533 137.601 79.2958 137.56 91.044C137.544 92.6206 137.766 94.1909 138.219 95.7045C138.606 97.0347 139.228 98.2894 140.056 99.4127C140.796 100.426 141.736 101.285 142.821 101.941C143.868 102.555 145.066 102.881 146.288 102.885C147.501 102.916 148.699 102.624 149.755 102.042C150.84 101.43 151.786 100.61 152.537 99.6319C153.368 98.5407 153.999 97.3173 154.4 96.0164C154.857 94.5319 155.085 92.9897 155.076 91.4401L155.137 56.6506C155.155 55.0829 154.936 53.5212 154.487 52.0154C154.093 50.6626 153.469 49.3835 152.641 48.2314C151.897 47.1866 150.956 46.2887 149.867 45.5851C148.832 44.9246 147.637 44.5409 146.401 44.4726L143.142 44.3041C140.308 44.1608 138.098 42.5343 136.503 39.3739C135.878 38.1769 135.605 36.8353 135.714 35.4971C135.763 34.2359 136.218 33.0214 137.014 32.0249C137.282 31.6107 137.678 31.2902 138.146 31.1099C138.613 30.9295 139.128 30.8988 139.614 31.022C140.121 31.1728 140.584 31.4342 140.97 31.7863C141.357 32.1383 141.655 32.5717 141.842 33.0531C142.134 33.6466 142.526 34.1879 143.003 34.6544C143.425 35.047 143.98 35.275 144.563 35.2949L146.47 35.396ZM178.684 112.181C178.716 113.351 178.36 114.5 177.67 115.459C177.411 115.864 177.051 116.199 176.624 116.435C176.197 116.67 175.717 116.798 175.226 116.807C174.735 116.797 174.255 116.665 173.831 116.425C173.406 116.185 173.052 115.844 172.8 115.434C172.123 114.455 171.783 113.292 171.829 112.113L172.219 37.4102C172.167 36.2727 172.522 35.1528 173.224 34.2414C173.496 33.8672 173.872 33.5758 174.308 33.4013C174.744 33.2267 175.221 33.1761 175.686 33.2554C176.197 33.3567 176.68 33.5653 177.101 33.8666C177.522 34.1678 177.87 34.5546 178.121 34.9999C178.783 36.0292 179.121 37.2246 179.092 38.4384L178.684 112.181Z" fill="#DF1900"/>
<path d="M196.735 110.234C195.578 110.251 194.436 109.978 193.419 109.44C192.401 108.903 191.544 108.12 190.929 107.166C189.551 105.16 188.883 102.354 188.901 98.7384L189.239 43.3854C189.19 42.2976 189.533 41.2274 190.209 40.3598C190.482 40.0052 190.856 39.7363 191.284 39.5864C191.712 39.4366 192.176 39.4125 192.619 39.5171C193.127 39.6421 193.602 39.8705 194.013 40.1872C194.424 40.5039 194.761 40.9017 195.002 41.3543C195.636 42.3687 195.958 43.5386 195.929 44.7254L195.609 98.2075C195.609 100.677 196.475 101.949 198.209 102.025C203.972 102.295 206.876 102.438 212.613 102.758C213.024 102.796 213.42 102.927 213.768 103.143C214.116 103.358 214.406 103.651 214.615 103.997C215.176 104.835 215.458 105.821 215.421 106.821C215.447 107.806 215.143 108.774 214.554 109.576C214.34 109.907 214.044 110.179 213.692 110.368C213.34 110.557 212.945 110.655 212.544 110.655C206.269 110.453 203.08 110.402 196.735 110.234ZM225.293 112.164C225.323 113.186 224.982 114.185 224.331 114.987C224.06 115.344 223.708 115.634 223.301 115.834C222.895 116.035 222.446 116.14 221.991 116.142C221.53 116.134 221.077 116.02 220.672 115.807C220.266 115.594 219.919 115.29 219.659 114.92C219.014 114.076 218.681 113.046 218.714 111.995L218.87 77.7029C215.308 77.1383 213.532 76.8601 209.961 76.3545C209.538 76.2778 209.138 76.1081 208.793 75.8584C208.447 75.6086 208.165 75.2854 207.968 74.9133C207.409 74.0152 207.129 72.9792 207.162 71.9299C207.13 70.9539 207.435 69.9957 208.028 69.2078C208.242 68.8918 208.547 68.6437 208.904 68.4939C209.261 68.3442 209.656 68.2994 210.039 68.365C213.601 68.9718 215.386 69.2921 218.94 69.9663C218.983 61.0161 219 56.541 219.044 47.5908C219.011 47.1113 219.079 46.6303 219.243 46.1769C219.407 45.7235 219.663 45.3072 219.997 44.9529C220.289 44.6562 220.664 44.4499 221.076 44.36C221.487 44.27 221.917 44.3004 222.311 44.4473C223.278 44.7943 224.082 45.4712 224.573 46.3519C225.182 47.2869 225.504 48.3717 225.501 49.4786C225.431 70.3736 225.359 91.2687 225.284 112.164H225.293ZM238.579 113.31C238.603 114.284 238.251 115.232 237.591 115.965C237.304 116.309 236.94 116.586 236.527 116.775C236.115 116.963 235.664 117.059 235.208 117.054C234.752 117.049 234.303 116.944 233.895 116.746C233.486 116.549 233.129 116.265 232.85 115.914C232.193 115.134 231.845 114.15 231.871 113.141C231.917 92.4542 231.957 71.7642 231.992 51.0714C231.959 50.6222 232.029 50.1715 232.197 49.7517C232.365 49.332 232.626 48.9537 232.963 48.6442C233.281 48.3835 233.669 48.2152 234.081 48.1586C234.493 48.102 234.914 48.1593 235.294 48.324C236.265 48.6977 237.082 49.3733 237.617 50.2455C238.234 51.1349 238.568 52.1812 238.579 53.2542V113.31Z" fill="#DF1900"/>
</g>
<defs>
<clipPath id="clip0_250_1854">
<rect width="248" height="131" fill="white"/>
</clipPath>
</defs>
</svg>
