<svg width="34" height="34" viewBox="0 0 34 34" fill="none" xmlns="http://www.w3.org/2000/svg">
<rect width="34" height="34" rx="11" fill="#FAE100"/>
<g clip-path="url(#clip0_450_625)">
<path d="M26 15.8048C26 20.3414 21.9706 23.1767 17 23.1767C15.9481 23.1767 14.9383 22.8604 14 22.6001C13.2689 22.3973 11.4167 25.6628 9.125 24.878C8.51412 24.5524 10.7826 21.0779 10.2917 20.6474C8.86656 19.3976 8 17.6141 8 15.8048C8 11.9035 12.0294 9 17 9C21.9706 9 26 11.2683 26 15.8048Z" fill="#3C1E1E"/>
<path d="M10.2917 20.6474L10.1268 20.8354L10.1268 20.8354L10.2917 20.6474ZM14 22.6001L14.0668 22.3592L14.0668 22.3592L14 22.6001ZM9.125 24.878L9.00742 25.0986C9.01917 25.1048 9.0314 25.1102 9.04399 25.1145L9.125 24.878ZM25.75 15.8048C25.75 17.9913 24.782 19.7635 23.2098 20.9952C21.6329 22.2306 19.4401 22.9267 17 22.9267V23.4267C19.5304 23.4267 21.8377 22.7053 23.5181 21.3888C25.2033 20.0687 26.25 18.1549 26.25 15.8048H25.75ZM8.25 15.8048C8.25 13.9479 9.20719 12.3158 10.7854 11.1399C12.3654 9.96259 14.5613 9.25 17 9.25V8.75C14.4682 8.75 12.164 9.48915 10.4867 10.7389C8.80753 11.9901 7.75 13.7604 7.75 15.8048H8.25ZM17 9.25C19.4517 9.25 21.6467 9.81004 23.2211 10.9064C24.7859 11.996 25.75 13.6222 25.75 15.8048H26.25C26.25 13.4509 25.1994 11.6747 23.5068 10.4961C21.8238 9.3241 19.5189 8.75 17 8.75V9.25ZM10.4565 20.4594C9.08009 19.2524 8.25 17.5351 8.25 15.8048H7.75C7.75 17.693 8.65303 19.5429 10.1268 20.8354L10.4565 20.4594ZM17 22.9267C15.9902 22.9267 15.0189 22.6234 14.0668 22.3592L13.9332 22.841C14.8578 23.0975 15.906 23.4267 17 23.4267V22.9267ZM14.0668 22.3592C13.8791 22.3072 13.6963 22.3752 13.5547 22.4526C13.4063 22.5337 13.2491 22.6553 13.0902 22.7904C12.93 22.9265 12.7546 23.0881 12.5724 23.2536C12.3883 23.4209 12.194 23.5952 11.9887 23.7644C11.1523 24.4536 10.2147 24.9869 9.206 24.6414L9.04399 25.1145C10.327 25.5539 11.4613 24.8469 12.3067 24.1503C12.5219 23.973 12.7236 23.7918 12.9086 23.6237C13.0954 23.454 13.262 23.3006 13.414 23.1714C13.5674 23.041 13.6928 22.9469 13.7945 22.8914C13.9031 22.832 13.9381 22.8424 13.9332 22.841L14.0668 22.3592ZM9.24258 24.6573C9.29617 24.6859 9.26774 24.7268 9.26982 24.6255C9.27168 24.5348 9.2995 24.3981 9.35707 24.2152C9.47099 23.8534 9.67529 23.3892 9.89169 22.9038C10.1043 22.4268 10.3285 21.9298 10.4671 21.5253C10.536 21.3241 10.5894 21.1302 10.6062 20.9646C10.621 20.8183 10.6175 20.6006 10.4565 20.4594L10.1268 20.8354C10.0886 20.8018 10.1216 20.7869 10.1087 20.9143C10.0978 21.0223 10.0592 21.1731 9.99408 21.3632C9.8645 21.7415 9.65175 22.2141 9.43502 22.7002C9.22201 23.178 9.00442 23.6704 8.88015 24.065C8.81864 24.2604 8.77328 24.4519 8.76993 24.6152C8.76679 24.7679 8.80111 24.9886 9.00742 25.0986L9.24258 24.6573Z" fill="#3C1E1E"/>
</g>
<defs>
<clipPath id="clip0_450_625">
<rect width="24" height="24" fill="white" transform="translate(5 5)"/>
</clipPath>
</defs>
</svg>
