<svg width="130" height="56" viewBox="0 0 130 56" fill="none" xmlns="http://www.w3.org/2000/svg">
<g clip-path="url(#clip0_450_611)">
<path d="M1.03125 16.6813V49.8246C1.03123 50.5294 1.20688 51.2275 1.5481 51.8784C1.88932 52.5292 2.38936 53.1203 3.01943 53.6173C3.6495 54.1142 4.39716 54.507 5.21936 54.7738C6.04156 55.0401 6.922 55.1749 7.81013 55.1703H122.189C123.077 55.1749 123.958 55.0401 124.78 54.7738C125.602 54.507 126.35 54.1142 126.98 53.6173C127.609 53.1203 128.11 52.5292 128.451 51.8784C128.792 51.2275 128.968 50.5294 128.968 49.8246V16.6813C128.968 16.6813 128.977 0.82959 64.9995 0.82959C1.02227 0.82959 1.03125 16.6813 1.03125 16.6813Z" fill="#FFE8AE" stroke="#DF1900" stroke-width="1.65079" stroke-miterlimit="10"/>
<path d="M18.1178 12.5298L18.8854 13.3637L20.1873 13.3316L19.4286 14.1691L19.8641 15.142L18.625 14.8249L17.597 15.4592L17.5925 14.4257L16.5195 13.8448L17.7541 13.5205L18.1178 12.5298Z" fill="#DF1900"/>
<path d="M50.0694 7.44775L50.7428 8.33156L52.0404 8.3886L51.1917 9.17264L51.5239 10.1705L50.3253 9.77134L49.2299 10.3308L49.3376 9.30094L48.332 8.64877L49.5935 8.40996L50.0694 7.44775Z" fill="#DF1900"/>
<path d="M111.301 12.5298L110.534 13.3637L109.236 13.3316L109.995 14.1691L109.555 15.142L110.794 14.8249L111.822 15.4592L111.827 14.4257L112.9 13.8448L111.665 13.5205L111.301 12.5298Z" fill="#DF1900"/>
<path d="M80.7426 7.96484L80.0689 8.84865L78.7715 8.90568L79.6201 9.68616L79.2879 10.6876L80.4868 10.2884L81.582 10.8444L81.4741 9.81799L82.4796 9.16225L81.2136 8.92705L80.7426 7.96484Z" fill="#DF1900"/>
<path d="M10.1957 31.3041C10.1957 32.2093 10.6715 32.6227 11.5425 32.4872C16.2158 31.7852 18.5413 31.4787 23.2551 30.9227C24.0677 30.8265 24.7231 31.4894 24.7276 32.4516C24.7321 33.4138 24.0946 34.2086 23.2775 34.287C19.0935 34.6861 14.9094 35.1494 10.7523 35.684C8.17996 36.0083 6.71194 34.736 6.71194 32.1808C6.71194 29.3012 6.71194 27.865 6.71194 24.9855C5.90837 25.1815 5.27539 24.7146 5.27539 23.8843C5.27539 23.0539 5.90837 22.2485 6.70745 22.024C11.502 20.7517 16.2967 19.6077 21.1945 18.5457C22.0071 18.3818 22.658 18.9805 22.6625 19.932C22.667 20.8835 22.0295 21.7211 21.2349 21.8565C16.7949 22.6619 14.5862 23.118 10.1912 24.1373L10.1957 31.3041ZM9.51778 42.6083C8.70522 42.6656 8.05873 42.0309 8.05424 41.1829C8.04976 40.3347 8.69625 39.5863 9.5088 39.5043C16.2039 38.8914 22.9049 38.3639 29.612 37.922C30.6041 37.8614 31.4077 38.7346 31.4077 39.8928C31.4077 43.3069 31.4436 45.0138 31.4705 48.446C31.4705 49.515 30.6983 50.3595 29.7107 50.3595C28.7231 50.3595 27.915 49.5365 27.915 48.4779C27.915 45.7161 27.8881 44.3368 27.8656 41.5783C21.7422 41.8446 15.6262 42.1877 9.51778 42.6083ZM31.3628 34.5436C31.3628 35.6127 30.5906 36.5072 29.603 36.5749C28.6153 36.6426 27.8072 35.8621 27.8072 34.8144C27.8072 31.8208 27.7713 30.324 27.7489 27.3304C25.365 27.6155 24.1574 27.7723 21.7961 28.1038C20.979 28.2178 20.328 27.5977 20.3236 26.6783C20.3191 25.7588 20.9565 24.9177 21.7736 24.7859C24.1485 24.4046 25.3381 24.2264 27.7264 23.8985L27.6816 17.9007C27.6816 16.8315 28.4492 15.8764 29.4369 15.7089C30.4245 15.5414 31.2326 16.2542 31.2326 17.3305C31.2775 23.061 31.3209 28.7987 31.3628 34.5436Z" fill="#DF1900"/>
<path d="M52.3067 35.0417C52.3067 37.1159 52.3067 38.1529 52.3067 40.2306C52.3067 41.3782 51.5256 42.28 50.5111 42.2941C49.4964 42.3082 48.7153 41.4352 48.7153 40.2948V35.1416C44.1542 35.2841 41.8781 35.3839 37.3214 35.6298C36.5044 35.6726 35.8489 34.8992 35.8399 33.88C35.831 32.8607 36.4775 32.0054 37.299 31.9484C45.896 31.4174 54.4574 31.1216 63.0317 31.0183C63.8535 31.0183 64.504 31.8736 64.504 32.9498C64.504 34.0261 63.8535 34.8814 63.0317 34.8849C58.7402 34.8957 56.5941 34.9277 52.3067 35.0417ZM38.2956 25.1808C41.3618 23.0033 42.9017 21.9056 45.9813 19.7282C46.7355 19.2079 47.777 19.4395 48.1855 20.3768C48.5941 21.314 48.3337 22.5614 47.5436 23.1137C44.4774 25.2734 42.9465 26.3604 39.9118 28.5129C39.1621 29.0617 38.116 28.8016 37.6671 27.9035C37.2182 27.0054 37.4875 25.7438 38.2956 25.1808ZM61.1911 46.0502C62.0082 46.0502 62.6592 46.9056 62.6592 47.9783C62.6592 49.051 62.0129 49.9097 61.1957 49.9134C55.078 49.9134 48.9577 49.9134 42.8343 49.9134C40.244 49.9134 38.7311 48.1102 38.7086 44.9883C38.7086 43.249 38.7086 42.3762 38.6817 40.6369C38.6817 39.525 39.4538 38.6305 40.446 38.5948C41.4381 38.5592 42.2417 39.4002 42.2417 40.5229C42.2417 42.1194 42.2417 42.9175 42.2686 44.5109C42.2686 45.5798 42.7535 46.168 43.6424 46.1573C49.4665 46.0979 55.3055 46.0623 61.1596 46.0502H61.1911ZM60.4817 27.6505C57.1508 25.5942 53.7836 23.5806 50.3674 21.6419C49.1283 20.947 48.3292 19.5607 48.3202 17.5364C48.3202 16.7096 48.3202 16.2927 48.3202 15.4659C48.3202 14.3254 49.1014 13.463 50.116 13.3953C51.1306 13.3276 51.9115 14.0867 51.9115 15.2342C51.9115 15.9292 51.9115 16.2784 51.9115 16.9769C51.9115 17.7823 52.1901 18.1922 52.6028 18.4274C56.3831 20.5657 58.2733 21.7096 62.0304 24.0297C62.8207 24.5357 63.0854 25.8721 62.6861 26.813C62.2863 27.7538 61.1911 28.1102 60.4503 27.6505H60.4817Z" fill="#DF1900"/>
<path d="M76.2179 15.345C81.6051 15.9152 84.267 20.4733 84.2268 24.3721L84.1458 39.283C84.1819 43.0677 81.1429 47.7219 76.11 47.7007C70.9833 47.6792 68.0655 42.8287 68.1279 39.0121C68.1279 33.923 68.1279 28.8315 68.1279 23.7377C68.1171 22.4003 68.4106 21.0722 68.9946 19.8175C69.4795 18.8019 70.5118 18.4455 71.3382 19.0549C72.1641 19.6643 72.4695 21.0114 71.9846 22.0271C71.7535 22.6643 71.6354 23.3241 71.6343 23.9872C71.6343 28.9527 71.624 33.9183 71.6029 38.8838C71.6029 41.71 73.542 43.8732 76.092 43.8732C78.6419 43.8732 80.6131 41.8133 80.6265 39.0264L80.6936 24.3329C80.6936 21.546 78.7544 19.3008 76.173 19.1796L74.4897 19.1084C73.0798 19.0513 71.8768 18.3707 71.0509 17.0236C70.4354 16.0221 70.503 14.6501 71.2975 13.9052C72.0924 13.1604 73.2325 13.4206 73.7804 14.34C74.1213 14.9102 74.5346 15.2666 75.1897 15.2987L76.2179 15.345ZM92.9048 47.8148C92.9048 48.9157 92.1098 49.7677 91.109 49.7677C90.1077 49.7677 89.3401 48.8979 89.3489 47.7824L89.5511 16.1967C89.5511 15.0813 90.3502 14.3079 91.3469 14.4362C92.3435 14.5645 93.1426 15.5303 93.1111 16.6279L92.9048 47.8148Z" fill="#DF1900"/>
<path d="M102.262 46.9881C99.6716 46.9416 98.1813 45.167 98.2215 42.1376L98.3964 18.7307C98.3964 17.6615 99.1599 16.9487 100.147 17.0984C101.135 17.2481 101.88 18.2139 101.871 19.2723C101.818 26.811 101.762 34.3496 101.705 41.8883C101.705 42.9075 102.154 43.4704 103.052 43.5061C106.037 43.6164 107.541 43.677 110.513 43.8126C111.33 43.8483 111.977 44.6145 111.968 45.5304C111.959 46.4463 111.312 47.1697 110.495 47.1519C107.196 47.0768 105.553 47.0449 102.262 46.9881ZM117.054 47.8003C117.054 48.7518 116.3 49.4898 115.344 49.4827C114.387 49.4753 113.642 48.7091 113.647 47.7293L113.714 33.2281C111.869 32.9894 110.949 32.8717 109.099 32.6579C108.282 32.5653 107.64 31.7349 107.649 30.7905C107.658 29.8461 108.304 29.1725 109.121 29.2866C110.967 29.5467 111.892 29.6822 113.732 29.9637C113.754 26.179 113.764 24.2866 113.786 20.5018C113.786 19.5218 114.535 18.9409 115.478 19.1726C116.421 19.4042 117.158 20.3415 117.153 21.3108C117.126 30.1372 117.093 38.967 117.054 47.8003ZM123.936 48.2852C123.936 49.1795 123.151 49.8748 122.199 49.8673C121.247 49.8602 120.461 49.1546 120.461 48.2176C120.486 39.4695 120.507 30.7204 120.524 21.9701C120.524 21.0435 121.297 20.5446 122.235 20.8048C122.739 20.9884 123.167 21.2824 123.468 21.6523C123.77 22.0222 123.932 22.4527 123.936 22.8932V48.2852Z" fill="#DF1900"/>
</g>
<defs>
<clipPath id="clip0_450_611">
<rect width="130" height="56" fill="white"/>
</clipPath>
</defs>
</svg>
