<svg width="75" height="32" viewBox="0 0 75 32" fill="none" xmlns="http://www.w3.org/2000/svg">
<g clip-path="url(#clip0_450_651)">
<path d="M0.595703 9.53225V28.4713C0.595691 28.874 0.69703 29.2729 0.893888 29.6448C1.09074 30.0168 1.37923 30.3545 1.74273 30.6385C2.10623 30.9225 2.53757 31.147 3.01192 31.2994C3.48627 31.4515 3.99421 31.5286 4.5066 31.526H70.4942C71.0067 31.5286 71.5147 31.4515 71.9891 31.2994C72.4633 31.147 72.8948 30.9225 73.2582 30.6385C73.6216 30.3545 73.9103 30.0168 74.107 29.6448C74.304 29.2729 74.4052 28.874 74.4052 28.4713V9.53225C74.4052 9.53225 74.4103 0.474121 37.5005 0.474121C0.590524 0.474121 0.595703 9.53225 0.595703 9.53225Z" fill="#FFE8AE" stroke="#DF1900" stroke-width="0.948148" stroke-miterlimit="10"/>
<path d="M10.4533 7.15967L10.8962 7.63618L11.6473 7.61786L11.2096 8.09644L11.4608 8.65238L10.746 8.47115L10.1529 8.83362L10.1503 8.24305L9.53125 7.91112L10.2435 7.72581L10.4533 7.15967Z" fill="#DF1900"/>
<path d="M28.8871 4.25586L29.2756 4.76089L30.0242 4.79348L29.5346 5.24151L29.7263 5.8117L29.0347 5.58362L28.4028 5.90334L28.4649 5.31482L27.8848 4.94215L28.6126 4.80569L28.8871 4.25586Z" fill="#DF1900"/>
<path d="M64.2129 7.15967L63.77 7.63618L63.0215 7.61786L63.4593 8.09644L63.2054 8.65238L63.9203 8.47115L64.5134 8.83362L64.5158 8.24305L65.1349 7.91112L64.4227 7.72581L64.2129 7.15967Z" fill="#DF1900"/>
<path d="M46.5825 4.55127L46.1938 5.0563L45.4453 5.08889L45.9349 5.53488L45.7432 6.10711L46.4349 5.87903L47.0667 6.19671L47.0045 5.61021L47.5846 5.2355L46.8542 5.1011L46.5825 4.55127Z" fill="#DF1900"/>
<path d="M5.8816 17.8878C5.8816 18.4051 6.15612 18.6413 6.65859 18.5639C9.35475 18.1627 10.6964 17.9876 13.4159 17.6699C13.8847 17.615 14.2628 17.9937 14.2654 18.5436C14.268 19.0934 13.9002 19.5475 13.4288 19.5923C11.0149 19.8204 8.60106 20.0852 6.20273 20.3906C4.71868 20.5759 3.87175 19.8489 3.87175 18.3888C3.87175 16.7433 3.87175 15.9227 3.87175 14.2772C3.40815 14.3892 3.04297 14.1224 3.04297 13.6479C3.04297 13.1734 3.40815 12.7132 3.86916 12.5849C6.63526 11.8579 9.40139 11.2042 12.227 10.5973C12.6959 10.5037 13.0714 10.8458 13.074 11.3895C13.0766 11.9332 12.7088 12.4118 12.2504 12.4892C9.68886 12.9494 8.41461 13.2101 5.87901 13.7925L5.8816 17.8878ZM5.4905 24.3474C5.02172 24.3801 4.64874 24.0174 4.64615 23.5329C4.64356 23.0482 5.01654 22.6205 5.48532 22.5737C9.34785 22.2234 13.2138 21.922 17.0833 21.6695C17.6557 21.6349 18.1193 22.1338 18.1193 22.7957C18.1193 24.7466 18.14 25.722 18.1556 27.6832C18.1556 28.2941 17.7101 28.7767 17.1403 28.7767C16.5705 28.7767 16.1043 28.3064 16.1043 27.7015C16.1043 26.1233 16.0887 25.3351 16.0758 23.7588C12.543 23.911 9.01461 24.107 5.4905 24.3474ZM18.0934 19.739C18.0934 20.3499 17.6479 20.8611 17.0781 20.8997C16.5083 20.9384 16.0421 20.4924 16.0421 19.8937C16.0421 18.1831 16.0214 17.3278 16.0084 15.6172C14.6331 15.7801 13.9365 15.8697 12.5741 16.0591C12.1027 16.1243 11.7272 15.7699 11.7246 15.2445C11.722 14.7191 12.0898 14.2385 12.5612 14.1632C13.9313 13.9453 14.6176 13.8434 15.9955 13.6561L15.9696 10.2287C15.9696 9.6178 16.4125 9.07204 16.9823 8.97633C17.5521 8.88061 18.0183 9.28791 18.0183 9.90291C18.0442 13.1775 18.0692 16.4562 18.0934 19.739Z" fill="#DF1900"/>
<path d="M30.1778 20.0236C30.1778 21.2089 30.1778 21.8015 30.1778 22.9887C30.1778 23.6445 29.7272 24.1598 29.1419 24.1678C28.5565 24.1759 28.1059 23.6771 28.1059 23.0254V20.0807C25.4745 20.1621 24.1613 20.2192 21.5325 20.3597C21.0611 20.3841 20.683 19.9422 20.6778 19.3598C20.6726 18.7774 21.0456 18.2886 21.5195 18.256C26.4794 17.9526 31.4186 17.7836 36.3653 17.7245C36.8395 17.7245 37.2148 18.2133 37.2148 18.8282C37.2148 19.4433 36.8395 19.932 36.3653 19.934C33.8895 19.9402 32.6514 19.9585 30.1778 20.0236ZM22.0945 14.3888C23.8635 13.1445 24.7519 12.5173 26.5286 11.273C26.9637 10.9757 27.5646 11.1081 27.8003 11.6437C28.036 12.1792 27.8857 12.892 27.4299 13.2076C25.6609 14.4417 24.7778 15.0629 23.0269 16.2929C22.5944 16.6065 21.9909 16.4578 21.7319 15.9446C21.4729 15.4315 21.6283 14.7106 22.0945 14.3888ZM35.3034 26.3142C35.7749 26.3142 36.1505 26.803 36.1505 27.416C36.1505 28.0289 35.7775 28.5196 35.3061 28.5217C31.7767 28.5217 28.2457 28.5217 24.713 28.5217C23.2186 28.5217 22.3458 27.4913 22.3328 25.7074C22.3328 24.7135 22.3328 24.2148 22.3173 23.2209C22.3173 22.5855 22.7627 22.0743 23.3351 22.054C23.9075 22.0336 24.3711 22.5142 24.3711 23.1557C24.3711 24.068 24.3711 24.5241 24.3867 25.4346C24.3867 26.0454 24.6664 26.3815 25.1792 26.3754C28.5393 26.3415 31.9079 26.3211 35.2853 26.3142H35.3034ZM34.8942 15.8001C32.9725 14.625 31.0299 13.4744 29.059 12.3666C28.3442 11.9695 27.8831 11.1773 27.878 10.0206C27.878 9.54815 27.878 9.30988 27.878 8.83744C27.878 8.18576 28.3286 7.69296 28.914 7.65425C29.4993 7.61556 29.9499 8.04932 29.9499 8.70506C29.9499 9.10217 29.9499 9.30175 29.9499 9.7009C29.9499 10.1611 30.1106 10.3953 30.3487 10.5297C32.5296 11.7516 33.6201 12.4053 35.7877 13.731C36.2436 14.0202 36.3963 14.7839 36.1659 15.3215C35.9353 15.8591 35.3034 16.0628 34.8761 15.8001H34.8942Z" fill="#DF1900"/>
<path d="M43.9725 8.76871C47.0806 9.09454 48.6163 11.6992 48.5931 13.927L48.5463 22.4476C48.5672 24.6102 46.8139 27.2698 43.9103 27.2577C40.9526 27.2454 39.2692 24.4737 39.3053 22.2928C39.3053 19.3847 39.3053 16.4753 39.3053 13.5645C39.299 12.8003 39.4684 12.0414 39.8053 11.3244C40.085 10.7441 40.6806 10.5404 41.1573 10.8887C41.6338 11.2369 41.81 12.0067 41.5303 12.587C41.3969 12.9512 41.3288 13.3282 41.3282 13.7071C41.3282 16.5445 41.3222 19.382 41.31 22.2195C41.31 23.8344 42.4288 25.0706 43.8999 25.0706C45.371 25.0706 46.5082 23.8934 46.516 22.3009L46.5547 13.9046C46.5547 12.3121 45.4359 11.0292 43.9466 10.9599L42.9755 10.9192C42.1621 10.8866 41.4681 10.4977 40.9916 9.72788C40.6365 9.15563 40.6755 8.37161 41.1338 7.94598C41.5925 7.52036 42.2502 7.66903 42.5663 8.19442C42.763 8.52025 43.0014 8.72391 43.3794 8.74224L43.9725 8.76871ZM53.5996 27.3229C53.5996 27.952 53.141 28.4389 52.5636 28.4389C51.9859 28.4389 51.5431 27.9418 51.5481 27.3044L51.6648 9.25542C51.6648 8.618 52.1258 8.1761 52.7008 8.24941C53.2758 8.32273 53.7368 8.8746 53.7186 9.50182L53.5996 27.3229Z" fill="#DF1900"/>
<path d="M58.9974 26.8504C57.5031 26.8238 56.6433 25.8098 56.6665 24.0787L56.7674 10.7033C56.7674 10.0924 57.2078 9.68506 57.7775 9.77061C58.3474 9.85613 58.7772 10.408 58.7721 11.0128C58.7412 15.3206 58.709 19.6284 58.6763 23.9363C58.6763 24.5187 58.9352 24.8403 59.4534 24.8607C61.1757 24.9237 62.0433 24.9584 63.7578 25.0359C64.2293 25.0563 64.6022 25.4941 64.5971 26.0174C64.5918 26.5408 64.2189 26.9542 63.7474 26.944C61.8439 26.9011 60.8959 26.8829 58.9974 26.8504ZM67.5314 27.3145C67.5314 27.8583 67.0962 28.28 66.5448 28.2759C65.993 28.2717 65.5632 27.8339 65.5656 27.274L65.6046 18.9876C64.54 18.8511 64.009 18.7839 62.9421 18.6618C62.4706 18.6088 62.1004 18.1343 62.1055 17.5946C62.1105 17.055 62.4834 16.6701 62.9549 16.7353C64.0195 16.8839 64.5531 16.9613 65.615 17.1222C65.6278 14.9595 65.6331 13.8781 65.6459 11.7154C65.6459 11.1554 66.0784 10.8235 66.6224 10.9558C67.1662 11.0882 67.5912 11.6238 67.5885 12.1777C67.573 17.2213 67.554 22.2669 67.5314 27.3145ZM71.5019 27.5916C71.5019 28.1027 71.0486 28.4999 70.4995 28.4957C69.9504 28.4916 69.4971 28.0884 69.4971 27.553C69.5111 22.5541 69.5233 17.5546 69.5334 12.5544C69.5334 12.025 69.979 11.7398 70.5203 11.8885C70.8114 11.9934 71.0581 12.1615 71.232 12.3728C71.4061 12.5842 71.4995 12.8302 71.5019 13.0819V27.5916Z" fill="#DF1900"/>
</g>
<defs>
<clipPath id="clip0_450_651">
<rect width="75" height="32" fill="white"/>
</clipPath>
</defs>
</svg>
