<svg width="34" height="34" viewBox="0 0 34 34" fill="none" xmlns="http://www.w3.org/2000/svg">
<path d="M10.2 15.3C10.6817 15.3 11.0854 15.1371 11.4113 14.8113C11.7371 14.4854 11.9 14.0817 11.9 13.6C11.9 13.1183 11.7371 12.7146 11.4113 12.3887C11.0854 12.0629 10.6817 11.9 10.2 11.9C9.71833 11.9 9.31458 12.0629 8.98875 12.3887C8.66292 12.7146 8.5 13.1183 8.5 13.6C8.5 14.0817 8.66292 14.4854 8.98875 14.8113C9.31458 15.1371 9.71833 15.3 10.2 15.3ZM17 15.3C17.4817 15.3 17.8854 15.1371 18.2113 14.8113C18.5371 14.4854 18.7 14.0817 18.7 13.6C18.7 13.1183 18.5371 12.7146 18.2113 12.3887C17.8854 12.0629 17.4817 11.9 17 11.9C16.5183 11.9 16.1146 12.0629 15.7888 12.3887C15.4629 12.7146 15.3 13.1183 15.3 13.6C15.3 14.0817 15.4629 14.4854 15.7888 14.8113C16.1146 15.1371 16.5183 15.3 17 15.3ZM23.8 15.3C24.2817 15.3 24.6854 15.1371 25.0113 14.8113C25.3371 14.4854 25.5 14.0817 25.5 13.6C25.5 13.1183 25.3371 12.7146 25.0113 12.3887C24.6854 12.0629 24.2817 11.9 23.8 11.9C23.3183 11.9 22.9146 12.0629 22.5888 12.3887C22.2629 12.7146 22.1 13.1183 22.1 13.6C22.1 14.0817 22.2629 14.4854 22.5888 14.8113C22.9146 15.1371 23.3183 15.3 23.8 15.3ZM0 34V3.4C0 2.465 0.332917 1.66458 0.99875 0.99875C1.66458 0.332917 2.465 0 3.4 0H30.6C31.535 0 32.3354 0.332917 33.0013 0.99875C33.6671 1.66458 34 2.465 34 3.4V23.8C34 24.735 33.6671 25.5354 33.0013 26.2013C32.3354 26.8671 31.535 27.2 30.6 27.2H6.8L0 34ZM5.355 23.8H30.6V3.4H3.4V25.7125L5.355 23.8Z" fill="#DF1900"/>
</svg>
